<?xml version="1.0" encoding="utf-8"?>
<!-- Generator: Adobe Illustrator 16.0.0, SVG Export Plug-In . SVG Version: 6.00 Build 0)  -->
<!DOCTYPE svg PUBLIC "-//W3C//DTD SVG 1.1//EN" "http://www.w3.org/Graphics/SVG/1.1/DTD/svg11.dtd">
<svg version="1.1" xmlns="http://www.w3.org/2000/svg" xmlns:xlink="http://www.w3.org/1999/xlink" x="0px" y="0px" width="441px"
	 height="344px" viewBox="0 0 441 344" enable-background="new 0 0 441 344" xml:space="preserve">
<g id="Layer_1" display="none">
	<g id="Layer_4">
		<line display="inline" fill="none" stroke="#FFFFFF" stroke-miterlimit="10" x1="415.141" y1="55" x2="415.141" y2="199"/>
		<ellipse display="inline" fill="#FFFFFF" cx="415.141" cy="199" rx="2.334" ry="4.5"/>
	</g>
	<g id="Layer_2">
		<rect x="176.141" y="19" display="inline" fill="#FFFFFF" width="243" height="36"/>
		<polygon display="inline" fill="#FFFFFF" points="410.141,82 185.141,82 203.141,64 392.141,64 		"/>
		<polygon display="inline" fill="#FFFFFF" points="410.141,109 185.141,109 203.141,91 392.141,91 		"/>
		<polygon display="inline" fill="#FFFFFF" points="410.141,136 185.141,136 203.141,118 392.141,118 		"/>
		<polygon display="inline" fill="#FFFFFF" points="410.141,163 185.141,163 203.141,145 392.141,145 		"/>
		<polygon display="inline" fill="#FFFFFF" points="410.141,190 185.141,190 203.141,172 392.141,172 		"/>
		<polygon display="inline" fill="#FFFFFF" points="410.141,217 185.141,217 203.141,199 392.141,199 		"/>
		<polygon display="inline" fill="#FFFFFF" points="410.141,244 185.141,244 203.141,226 392.141,226 		"/>
		<polygon display="inline" fill="#FFFFFF" points="410.141,271 185.141,271 203.141,253 392.141,253 		"/>
		<polygon display="inline" fill="#FFFFFF" points="410.141,298 185.141,298 203.141,280 392.141,280 		"/>
	</g>
	<g id="Layer_3">
		
			<line display="inline" fill="none" stroke="#FFFFFF" stroke-width="2" stroke-miterlimit="10" x1="221.141" y1="46" x2="221.141" y2="289"/>
		
			<line display="inline" fill="none" stroke="#FFFFFF" stroke-width="2" stroke-miterlimit="10" x1="374.141" y1="46" x2="374.141" y2="289"/>
	</g>
</g>
<g id="Layer_8" display="none">
	<g id="Layer_6" display="inline">
	</g>
	<g id="Layer_7" display="inline">
		<rect x="-525" y="253" fill="#FFFFFF" width="9.667" height="13.998"/>
		<rect x="-525" y="413" fill="#FFFFFF" width="9.667" height="13.998"/>
		<g id="XMLID_2_">
			<g>
				<path fill="#FFFFFF" d="M-383.333,194.5v315l-135-23v-267L-383.333,194.5z M-401.963,362.23c0-1.66-1.35-3-3-3h-23.34
					c-1.65,0-3,1.34-3,3c0,1.649,1.35,3,3,3h23.34C-403.313,365.23-401.963,363.88-401.963,362.23z"/>
			</g>
			<g>
			</g>
		</g>
	</g>
	<g id="Layer_5" display="inline">
		<g id="XMLID_1_">
			<g>
				<polygon fill="#FFFFFF" points="-323,208 -323,487 -332,487 -332,217 -522,217 -522,487 -531,487 -531,208 				"/>
			</g>
			<g>
			</g>
		</g>
	</g>
</g>
<g id="Layer_11" display="none">
	<g display="inline">
		<rect x="325.641" y="70" fill="#010202" width="1" height="144"/>
	</g>
	<g display="inline">
		<ellipse fill="#010202" cx="326.141" cy="214" rx="2.334" ry="4.5"/>
	</g>
	<g display="inline">
		<rect x="87.141" y="34" fill="#010202" width="243" height="36"/>
	</g>
	<g display="inline">
		<polygon fill="#010202" points="321.141,97 96.141,97 114.141,79 303.141,79 		"/>
	</g>
	<g display="inline">
		<polygon fill="#010202" points="321.141,124 96.141,124 114.141,106 303.141,106 		"/>
	</g>
	<g display="inline">
		<polygon fill="#010202" points="321.141,151 96.141,151 114.141,133 303.141,133 		"/>
	</g>
	<g display="inline">
		<polygon fill="#010202" points="321.141,178 96.141,178 114.141,160 303.141,160 		"/>
	</g>
	<g display="inline">
		<polygon fill="#010202" points="321.141,205 96.141,205 114.141,187 303.141,187 		"/>
	</g>
	<g display="inline">
		<polygon fill="#010202" points="321.141,232 96.141,232 114.141,214 303.141,214 		"/>
	</g>
	<g display="inline">
		<polygon fill="#010202" points="321.141,259 96.141,259 114.141,241 303.141,241 		"/>
	</g>
	<g display="inline">
		<polygon fill="#010202" points="321.141,286 96.141,286 114.141,268 303.141,268 		"/>
	</g>
	<g display="inline">
		<polygon fill="#010202" points="321.141,313 96.141,313 114.141,295 303.141,295 		"/>
	</g>
	<g display="inline">
		<rect x="131.141" y="61" fill="#010202" width="2" height="243"/>
	</g>
	<g display="inline">
		<rect x="284.141" y="61" fill="#010202" width="2" height="243"/>
	</g>
</g>
<g id="Layer_12" display="none">
	<path display="inline" fill="#FFFFFF" d="M-620.484,223.75v234.061h-142.472V223.75H-620.484z M-630.661,447.634V233.927h-122.118
		v213.707H-630.661z"/>
	<path display="inline" fill="#FFFFFF" d="M-634.053,236.658v208.244l-98.374-10.961V247.619L-634.053,236.658z M-645.926,437.334
		V244.227l-71.236,6.437v180.234L-645.926,437.334z"/>
	<path display="inline" fill="#FFFFFF" d="M-773.133,223.75v234.061h-142.472V223.75H-773.133z M-783.309,447.634V233.927h-122.119
		v213.707H-783.309z"/>
	<path display="inline" fill="#FFFFFF" d="M-786.136,235.905v209.75h-116.465v-209.75H-786.136z M-795.521,439.138V242.421h-97.695
		v196.716H-795.521z"/>
	<rect x="-642.722" y="261.065" display="inline" fill="#FFFFFF" width="16.206" height="21.484"/>
	<rect x="-642.722" y="396.752" display="inline" fill="#FFFFFF" width="16.206" height="21.484"/>
	<path display="inline" fill="#FFFFFF" d="M-787.832,344.172c0,1.875-1.519,3.393-3.392,3.393h-26.384
		c-1.873,0-3.392-1.518-3.392-3.393l0,0c0-1.873,1.519-3.392,3.392-3.392h26.384C-789.351,340.78-787.832,342.299-787.832,344.172
		L-787.832,344.172z"/>
	<path display="inline" fill="#FFFFFF" d="M-710.189,337.389c0,1.873-0.932,3.392-2.081,3.392h-16.189
		c-1.15,0-2.082-1.519-2.082-3.392l0,0c0-1.875,0.932-3.393,2.082-3.393h16.189C-711.121,333.996-710.189,335.514-710.189,337.389
		L-710.189,337.389z"/>
</g>
<g id="Layer_13">
	<path fill="#010202" d="M367.568,51.75v234.061H225.097V51.75H367.568z M357.393,275.634V61.927H235.274v213.707H357.393z"/>
	<path fill="#010202" d="M354,64.658v208.244l-98.374-10.961V75.619L354,64.658z M342.127,265.334V72.227l-76.236,8.438v176.233
		L342.127,265.334z"/>
	<path fill="#010202" d="M214.92,51.75v234.061H72.449V51.75H214.92z M204.744,275.634V61.927H82.625v213.707H204.744z"/>
	<path fill="#010202" d="M201.917,63.905v209.75H85.452V63.905H201.917z M192.532,267.138V70.422H94.837v196.716H192.532z"/>
	<rect x="345.332" y="89.064" fill="#010202" width="16.205" height="21.484"/>
	<rect x="345.332" y="224.752" fill="#010202" width="16.205" height="21.484"/>
	<path fill="#010202" d="M200.221,172.172c0,1.875-1.519,3.393-3.392,3.393h-26.384c-1.873,0-3.392-1.518-3.392-3.393l0,0
		c0-1.873,1.519-3.392,3.392-3.392h26.384C198.702,168.78,200.221,170.299,200.221,172.172L200.221,172.172z"/>
	<path fill="#010202" d="M276.667,165.389c0,1.873-1.151,3.392-2.572,3.392h-20.01c-1.421,0-2.573-1.519-2.573-3.392l0,0
		c0-1.875,1.152-3.393,2.573-3.393h20.01C275.515,161.996,276.667,163.514,276.667,165.389L276.667,165.389z"/>
</g>
<g id="Layer_9" display="none">
	<rect x="-882" y="226" display="inline" fill="none" stroke="#FFFFFF" stroke-miterlimit="10" width="279" height="225"/>
	<rect x="-873" y="235" display="inline" fill="none" stroke="#FFFFFF" stroke-miterlimit="10" width="261" height="207"/>
	<rect x="-729" y="244" display="inline" fill="none" stroke="#FFFFFF" stroke-miterlimit="10" width="108" height="189"/>
	<rect x="-864" y="244" display="inline" fill="none" stroke="#FFFFFF" stroke-miterlimit="10" width="108" height="189"/>
	<rect x="-747" y="235" display="inline" fill="none" stroke="#FFFFFF" stroke-miterlimit="10" width="9" height="207"/>
	<rect x="-855" y="253" display="inline" fill="none" stroke="#FFFFFF" stroke-miterlimit="10" width="90" height="171"/>
	<polygon display="inline" fill="none" stroke="#FFFFFF" stroke-miterlimit="10" points="-630,424 -702,415 -702,262 -630,253 	"/>
	<g id="XMLID_3_" display="inline">
		<g>
			<polygon fill="#FFFFFF" points="-1011.33,230 -1011.33,411 -1058.33,391.95 -1058.33,249.05 			"/>
			<rect x="-1247.67" y="230" fill="#FFFFFF" width="101.34" height="181"/>
			<path fill="#FFFFFF" d="M-999,217v207h-126V217H-999z M-1008,415V226h-108v189H-1008z"/>
			<path fill="#FFFFFF" d="M-1134,217v207h-126V217H-1134z M-1143,415V226h-108v189H-1143z"/>
		</g>
		<g>
		</g>
	</g>
	<rect x="-846" y="262" display="inline" fill="none" stroke="#FFFFFF" stroke-miterlimit="10" width="72" height="153"/>
	<polygon display="inline" fill="none" stroke="#FFFFFF" stroke-miterlimit="10" points="-639,415 -693,406 -693,271 -639,262 	"/>
	<g display="inline">
	</g>
</g>
</svg>
